<svg xmlns="http://www.w3.org/2000/svg" xmlns:xlink="http://www.w3.org/1999/xlink" contentStyleType="text/css" data-diagram-type="DESCRIPTION" height="452px" preserveAspectRatio="none" style="width:1853px;height:452px;background:#FFFFFF;" version="1.1" viewBox="0 0 1853 452" width="1853px" zoomAndPan="magnify"><?plantuml 1.2026.3beta6?><defs/><g><!--cluster App Layer--><g class="cluster" data-qualified-name="App Layer" data-source-line="5" id="ent0002"><path d="M367.47,6 L448.1155,6 A3.75,3.75 0 0 1 450.6155,8.5 L457.6155,28.2969 L582.47,28.2969 A2.5,2.5 0 0 1 584.97,30.7969 L584.97,109.79 A2.5,2.5 0 0 1 582.47,112.29 L367.47,112.29 A2.5,2.5 0 0 1 364.97,109.79 L364.97,8.5 A2.5,2.5 0 0 1 367.47,6" fill="none" style="stroke:#000000;stroke-width:1.5;"/><line style="stroke:#000000;stroke-width:1.5;" x1="364.97" x2="457.6155" y1="28.2969" y2="28.2969"/><text fill="#000000" font-family="sans-serif" font-size="14" font-weight="700" lengthAdjust="spacing" textLength="79.6455" x="368.97" y="20.9951">App Layer</text></g><!--cluster View Layer--><g class="cluster" data-qualified-name="View Layer" data-source-line="9" id="ent0004"><path d="M516.47,168.85 L604.3001,168.85 A3.75,3.75 0 0 1 606.8001,171.35 L613.8001,191.1469 L998.47,191.1469 A2.5,2.5 0 0 1 1000.97,193.6469 L1000.97,272.64 A2.5,2.5 0 0 1 998.47,275.14 L516.47,275.14 A2.5,2.5 0 0 1 513.97,272.64 L513.97,171.35 A2.5,2.5 0 0 1 516.47,168.85" fill="none" style="stroke:#000000;stroke-width:1.5;"/><line style="stroke:#000000;stroke-width:1.5;" x1="513.97" x2="613.8001" y1="191.1469" y2="191.1469"/><text fill="#000000" font-family="sans-serif" font-size="14" font-weight="700" lengthAdjust="spacing" textLength="86.8301" x="517.97" y="183.8451">View Layer</text></g><!--cluster ViewModel Layer--><g class="cluster" data-qualified-name="ViewModel Layer" data-source-line="15" id="ent0008"><path d="M107.47,168.85 L243.1653,168.85 A3.75,3.75 0 0 1 245.6653,171.35 L252.6653,191.1469 L286.47,191.1469 A2.5,2.5 0 0 1 288.97,193.6469 L288.97,272.64 A2.5,2.5 0 0 1 286.47,275.14 L107.47,275.14 A2.5,2.5 0 0 1 104.97,272.64 L104.97,171.35 A2.5,2.5 0 0 1 107.47,168.85" fill="none" style="stroke:#000000;stroke-width:1.5;"/><line style="stroke:#000000;stroke-width:1.5;" x1="104.97" x2="252.6653" y1="191.1469" y2="191.1469"/><text fill="#000000" font-family="sans-serif" font-size="14" font-weight="700" lengthAdjust="spacing" textLength="134.6953" x="108.97" y="183.8451">ViewModel Layer</text></g><!--cluster ToastManager Core--><g class="cluster" data-qualified-name="ToastManager Core" data-source-line="19" id="ent0010"><path d="M1212.47,6 L1367.4905,6 A3.75,3.75 0 0 1 1369.9905,8.5 L1376.9905,28.2969 L1385.47,28.2969 A2.5,2.5 0 0 1 1387.97,30.7969 L1387.97,435.49 A2.5,2.5 0 0 1 1385.47,437.99 L1212.47,437.99 A2.5,2.5 0 0 1 1209.97,435.49 L1209.97,8.5 A2.5,2.5 0 0 1 1212.47,6" fill="none" style="stroke:#000000;stroke-width:1.5;"/><line style="stroke:#000000;stroke-width:1.5;" x1="1209.97" x2="1376.9905" y1="28.2969" y2="28.2969"/><text fill="#000000" font-family="sans-serif" font-size="14" font-weight="700" lengthAdjust="spacing" textLength="154.0205" x="1213.97" y="20.9951">ToastManager Core</text></g><!--cluster SwiftUI Framework--><g class="cluster" data-qualified-name="SwiftUI Framework" data-source-line="25" id="ent0014"><path d="M395.47,331.69 L547.2845,331.69 A3.75,3.75 0 0 1 549.7845,334.19 L556.7845,353.9869 L706.47,353.9869 A2.5,2.5 0 0 1 708.97,356.4869 L708.97,435.49 A2.5,2.5 0 0 1 706.47,437.99 L395.47,437.99 A2.5,2.5 0 0 1 392.97,435.49 L392.97,334.19 A2.5,2.5 0 0 1 395.47,331.69" fill="none" style="stroke:#000000;stroke-width:1.5;"/><line style="stroke:#000000;stroke-width:1.5;" x1="392.97" x2="556.7845" y1="353.9869" y2="353.9869"/><text fill="#000000" font-family="sans-serif" font-size="14" font-weight="700" lengthAdjust="spacing" textLength="150.8145" x="396.97" y="346.6851">SwiftUI Framework</text></g><!--entity App--><g class="entity" data-qualified-name="App Layer.App" data-source-line="6" id="ent0003"><rect fill="#F1F1F1" height="36.2969" rx="2.5" ry="2.5" style="stroke:#181818;stroke-width:0.5;" width="188.793" x="380.57" y="60"/><text fill="#000000" font-family="sans-serif" font-size="14" lengthAdjust="spacing" textLength="168.793" x="390.57" y="82.9951">ToastManagerDemoApp</text></g><!--entity View--><g class="entity" data-qualified-name="View Layer.View" data-source-line="10" id="ent0005"><rect fill="#F1F1F1" height="36.2969" rx="2.5" ry="2.5" style="stroke:#181818;stroke-width:0.5;" width="109.209" x="530.37" y="222.85"/><text fill="#000000" font-family="sans-serif" font-size="14" lengthAdjust="spacing" textLength="89.209" x="540.37" y="245.8451">ContentView</text></g><!--entity ErrorView--><g class="entity" data-qualified-name="View Layer.ErrorView" data-source-line="11" id="ent0006"><rect fill="#F1F1F1" height="36.2969" rx="2.5" ry="2.5" style="stroke:#181818;stroke-width:0.5;" width="126.6885" x="858.63" y="222.85"/><text fill="#000000" font-family="sans-serif" font-size="14" lengthAdjust="spacing" textLength="106.6885" x="868.63" y="245.8451">ErrorToastView</text></g><!--entity SuccessView--><g class="entity" data-qualified-name="View Layer.SuccessView" data-source-line="12" id="ent0007"><rect fill="#F1F1F1" height="36.2969" rx="2.5" ry="2.5" style="stroke:#181818;stroke-width:0.5;" width="148.3652" x="674.79" y="222.85"/><text fill="#000000" font-family="sans-serif" font-size="14" lengthAdjust="spacing" textLength="128.3652" x="684.79" y="245.8451">SuccessToastView</text></g><!--entity ViewModel--><g class="entity" data-qualified-name="ViewModel Layer.ViewModel" data-source-line="16" id="ent0009"><rect fill="#F1F1F1" height="36.2969" rx="2.5" ry="2.5" style="stroke:#181818;stroke-width:0.5;" width="151.2432" x="121.35" y="222.85"/><text fill="#000000" font-family="sans-serif" font-size="14" lengthAdjust="spacing" textLength="131.2432" x="131.35" y="245.8451">ContentViewModel</text></g><!--entity Manager--><g class="entity" data-qualified-name="ToastManager Core.Manager" data-source-line="20" id="ent0011"><rect fill="#F1F1F1" height="36.2969" rx="2.5" ry="2.5" style="stroke:#181818;stroke-width:0.5;" width="119.8457" x="1226.05" y="222.85"/><text fill="#000000" font-family="sans-serif" font-size="14" lengthAdjust="spacing" textLength="99.8457" x="1236.05" y="245.8451">ToastManager</text></g><!--entity Data--><g class="entity" data-qualified-name="ToastManager Core.Data" data-source-line="21" id="ent0012"><rect fill="#F1F1F1" height="36.2969" rx="2.5" ry="2.5" style="stroke:#181818;stroke-width:0.5;" width="91.9072" x="1240.02" y="385.69"/><text fill="#000000" font-family="sans-serif" font-size="14" lengthAdjust="spacing" textLength="71.9072" x="1250.02" y="408.6851">ToastData</text></g><!--entity Modifier--><g class="entity" data-qualified-name="ToastManager Core.Modifier" data-source-line="22" id="ent0013"><rect fill="#F1F1F1" height="36.2969" rx="2.5" ry="2.5" style="stroke:#181818;stroke-width:0.5;" width="145.0566" x="1226.44" y="60"/><text fill="#000000" font-family="sans-serif" font-size="14" lengthAdjust="spacing" textLength="125.0566" x="1236.44" y="82.9951">ToastableModifier</text></g><!--entity NavigationStack--><g class="entity" data-qualified-name="SwiftUI Framework.NavigationStack" data-source-line="26" id="ent0015"><rect fill="#F1F1F1" height="36.2969" rx="2.5" ry="2.5" style="stroke:#181818;stroke-width:0.5;" width="134.2695" x="408.83" y="385.69"/><text fill="#000000" font-family="sans-serif" font-size="14" lengthAdjust="spacing" textLength="114.2695" x="418.83" y="408.6851">NavigationStack</text></g><!--entity View Protocol--><g class="entity" data-qualified-name="SwiftUI Framework.View Protocol" data-source-line="27" id="ent0016"><rect fill="#F1F1F1" height="36.2969" rx="2.5" ry="2.5" style="stroke:#181818;stroke-width:0.5;" width="114.9512" x="578.49" y="385.69"/><text fill="#000000" font-family="sans-serif" font-size="14" lengthAdjust="spacing" textLength="94.9512" x="588.49" y="408.6851">View Protocol</text></g><g class="entity" data-qualified-name="GMN31" data-source-line="51" id="ent0032"><path d="M1403.72,213.29 L1403.72,236.99 L1346.03,240.99 L1403.72,244.99 L1403.72,268.6884 A0,0 0 0 0 1403.72,268.6884 L1578.219,268.6884 A0,0 0 0 0 1578.219,268.6884 L1578.219,223.29 L1568.219,213.29 L1403.72,213.29 A0,0 0 0 0 1403.72,213.29" fill="#FEFFDD" style="stroke:#181818;stroke-width:0.5;"/><path d="M1568.219,213.29 L1568.219,223.29 L1578.219,223.29 L1568.219,213.29" fill="#FEFFDD" style="stroke:#181818;stroke-width:0.5;"/><text fill="#000000" font-family="sans-serif" font-size="13" font-weight="700" lengthAdjust="spacing" textLength="96.1479" x="1409.72" y="230.3569">@Observable</text><text fill="#000000" font-family="sans-serif" font-size="13" lengthAdjust="spacing" textLength="153.499" x="1409.72" y="245.4897">Single instance per app</text><text fill="#000000" font-family="sans-serif" font-size="13" lengthAdjust="spacing" textLength="150.0269" x="1409.72" y="260.6225">Auto-dismiss after 2.5s</text></g><g class="entity" data-qualified-name="GMN34" data-source-line="57" id="ent0035"><path d="M1613.02,213.29 L1613.02,268.6884 L1838.916,268.6884 L1838.916,223.29 L1828.916,213.29 L1613.02,213.29" fill="#FEFFDD" style="stroke:#181818;stroke-width:0.5;"/><path d="M1828.916,213.29 L1828.916,223.29 L1838.916,223.29 L1828.916,213.29" fill="#FEFFDD" style="stroke:#181818;stroke-width:1;"/><text fill="#000000" font-family="sans-serif" font-size="13" lengthAdjust="spacing" textLength="169.311" x="1619.02" y="230.3569">Applied at navigation root</text><text fill="#000000" font-family="sans-serif" font-size="13" lengthAdjust="spacing" textLength="193.8955" x="1619.02" y="245.4897">Observes toast state changes</text><text fill="#000000" font-family="sans-serif" font-size="13" lengthAdjust="spacing" textLength="204.896" x="1619.02" y="260.6225">Renders appropriate toast view</text></g><g class="entity" data-qualified-name="GMN37" data-source-line="63" id="ent0038"><path d="M6,50.45 L6,105.8484 L235.9395,105.8484 L235.9395,60.45 L225.9395,50.45 L6,50.45" fill="#FEFFDD" style="stroke:#181818;stroke-width:0.5;"/><path d="M225.9395,50.45 L225.9395,60.45 L235.9395,60.45 L225.9395,50.45" fill="#FEFFDD" style="stroke:#181818;stroke-width:1;"/><text fill="#000000" font-family="sans-serif" font-size="13" lengthAdjust="spacing" textLength="128.7813" x="12" y="67.5169">Business logic layer</text><text fill="#000000" font-family="sans-serif" font-size="13" lengthAdjust="spacing" textLength="208.9395" x="12" y="82.6497">Triggers toasts based on events</text><text fill="#000000" font-family="sans-serif" font-size="13" lengthAdjust="spacing" textLength="93.5581" x="12" y="97.7825">Injected via DI</text></g><!--link App to Manager--><g class="link" data-entity-1="ent0003" data-entity-2="ent0011" data-link-type="dependency" data-source-line="30" id="lnk17"><path d="M526.61,96.79 C589.17,118.11 687.34,151.33 695.97,152.85 C762.75,164.59 933.92,150.81 1000.97,160.85 C1085.53,173.5 1174.9727,201.2287 1231.1527,220.4387" fill="none" id="App-to-Manager" style="stroke:#181818;stroke-width:1;"/><polygon fill="#181818" points="1236.83,222.38,1229.6083,215.6832,1232.0989,220.7623,1227.0199,223.2529,1236.83,222.38" style="stroke:#181818;stroke-width:1;"/><text fill="#000000" font-family="sans-serif" font-size="13" lengthAdjust="spacing" textLength="48.3247" x="696.97" y="148.9169">creates</text></g><!--link App to View--><g class="link" data-entity-1="ent0003" data-entity-2="ent0005" data-link-type="dependency" data-source-line="31" id="lnk18"><path d="M503.68,96.68 C518.01,106.66 534.67,120.27 545.97,135.85 C565.47,162.73 575.0193,194.654 580.0793,216.554" fill="none" id="App-to-View" style="stroke:#181818;stroke-width:1;"/><polygon fill="#181818" points="581.43,222.4,583.3012,212.7305,580.3044,217.5283,575.5066,214.5315,581.43,222.4" style="stroke:#181818;stroke-width:1;"/><text fill="#000000" font-family="sans-serif" font-size="13" lengthAdjust="spacing" textLength="76.4702" x="555.97" y="148.9169">instantiates</text></g><!--link App to ViewModel--><g class="link" data-entity-1="ent0003" data-entity-2="ent0009" data-link-type="dependency" data-source-line="32" id="lnk19"><path d="M380.31,96.73 C293.03,113 176.81,134.83 175.97,135.85 C155.5,160.56 169.5631,194.592 182.5931,217.192" fill="none" id="App-to-ViewModel" style="stroke:#181818;stroke-width:1;"/><polygon fill="#181818" points="185.59,222.39,184.56,212.5952,183.0926,218.0584,177.6294,216.591,185.59,222.39" style="stroke:#181818;stroke-width:1;"/><text fill="#000000" font-family="sans-serif" font-size="13" lengthAdjust="spacing" textLength="139.3247" x="176.97" y="148.9169">injects ToastManager</text></g><!--link App to NavigationStack--><g class="link" data-entity-1="ent0003" data-entity-2="ent0015" data-link-type="dependency" data-source-line="33" id="lnk20"><path d="M413.51,96.74 C394.62,105.34 375.93,117.87 364.97,135.85 C361.04,142.3 363.4,145.45 364.97,152.85 C384.62,245.52 437.9469,340.4448 461.9069,380.0948" fill="none" id="App-to-NavigationStack" style="stroke:#181818;stroke-width:1;"/><polygon fill="#181818" points="465.01,385.23,463.7788,375.4584,462.424,380.9507,456.9318,379.5959,465.01,385.23" style="stroke:#181818;stroke-width:1;"/><text fill="#000000" font-family="sans-serif" font-size="13" lengthAdjust="spacing" textLength="54.9517" x="409.97" y="245.5569">wraps in</text></g><!--link View to ViewModel--><g class="link" data-entity-1="ent0005" data-entity-2="ent0009" data-link-type="dependency" data-source-line="35" id="lnk21"><path d="M558.98,222.43 C528.73,202.07 476.45,170.63 425.97,158.29 C371.56,144.98 352.59,141.64 299.97,160.85 C264.85,173.67 236.3787,198.9347 217.6187,218.3547" fill="none" id="View-to-ViewModel" style="stroke:#181818;stroke-width:1;"/><polygon fill="#181818" points="213.45,222.67,222.5799,218.9761,216.9239,219.0739,216.8261,213.4179,213.45,222.67" style="stroke:#181818;stroke-width:1;"/><text fill="#000000" font-family="sans-serif" font-size="13" lengthAdjust="spacing" textLength="58.7856" x="366.97" y="148.9169">observes</text></g><!--link View to Modifier--><g class="link" data-entity-1="ent0005" data-entity-2="ent0013" data-link-type="dependency" data-source-line="36" id="lnk22"><path d="M595.15,222.57 C607.24,203.7 629.3,174.47 656.97,160.85 C695.78,141.74 712.46,165.02 753.97,152.85 C769.42,148.31 770.58,140.59 785.97,135.85 C937.74,89.03 1119.2704,79.9319 1220.2904,78.7219" fill="none" id="View-to-Modifier" style="stroke:#181818;stroke-width:1;stroke-dasharray:7,7;"/><polygon fill="#181818" points="1226.29,78.65,1217.2427,74.7581,1221.2904,78.7099,1217.3386,82.7575,1226.29,78.65" style="stroke:#181818;stroke-width:1;"/><text fill="#000000" font-family="sans-serif" font-size="13" lengthAdjust="spacing" textLength="125.5884" x="786.97" y="148.9169">applies .toastable()</text></g><!--link ViewModel to Manager--><g class="link" data-entity-1="ent0009" data-entity-2="ent0011" data-link-type="dependency" data-source-line="38" id="lnk23"><path d="M213.4,222.54 C232.13,203.01 264.73,173.33 299.97,160.85 C447.54,108.58 948.89,153.51 1000.97,160.85 C1085.08,172.69 1173.6882,200.6541 1229.9682,220.3941" fill="none" id="ViewModel-to-Manager" style="stroke:#181818;stroke-width:1;"/><polygon fill="#181818" points="1235.63,222.38,1228.4612,215.6266,1230.9118,220.7251,1225.8133,223.1758,1235.63,222.38" style="stroke:#181818;stroke-width:1;"/><text fill="#000000" font-family="sans-serif" font-size="13" lengthAdjust="spacing" textLength="112.7153" x="431.97" y="148.9169">calls showToast()</text></g><!--link Modifier to Manager--><g class="link" data-entity-1="ent0013" data-entity-2="ent0011" data-link-type="dependency" data-source-line="40" id="lnk24"><path d="M1297.55,96.67 C1295.05,127.61 1290.3634,185.5895 1287.8634,216.5195" fill="none" id="Modifier-to-Manager" style="stroke:#181818;stroke-width:1;"/><polygon fill="#181818" points="1287.38,222.5,1292.0921,213.8515,1287.7828,217.5163,1284.1181,213.207,1287.38,222.5" style="stroke:#181818;stroke-width:1;"/><text fill="#000000" font-family="sans-serif" font-size="13" lengthAdjust="spacing" textLength="95.8496" x="1294.97" y="148.9169">observes state</text></g><!--link Modifier to ErrorView--><g class="link" data-entity-1="ent0013" data-entity-2="ent0006" data-link-type="dependency" data-source-line="41" id="lnk25"><path d="M1257.91,96.67 C1185.48,127.57 1041.3787,189.0455 968.7887,220.0155" fill="none" id="Modifier-to-ErrorView" style="stroke:#181818;stroke-width:1;stroke-dasharray:7,7;"/><polygon fill="#181818" points="963.27,222.37,973.1178,222.5174,967.8689,220.4079,969.9784,215.1591,963.27,222.37" style="stroke:#181818;stroke-width:1;"/><text fill="#000000" font-family="sans-serif" font-size="13" lengthAdjust="spacing" textLength="106.3931" x="1155.97" y="148.9169">renders on error</text></g><!--link Modifier to SuccessView--><g class="link" data-entity-1="ent0013" data-entity-2="ent0007" data-link-type="dependency" data-source-line="42" id="lnk26"><path d="M1226.16,92.21 C1165.13,103.31 1075.73,119.94 997.97,135.85 C963.63,142.87 955.58,147.31 920.97,152.85 C885.68,158.48 873.81,146.76 840.97,160.85 C808.82,174.63 783.6368,199.3096 767.1268,218.1296" fill="none" id="Modifier-to-SuccessView" style="stroke:#181818;stroke-width:1;stroke-dasharray:7,7;"/><polygon fill="#181818" points="763.17,222.64,772.1121,218.5122,766.4673,218.8813,766.0983,213.2365,763.17,222.64" style="stroke:#181818;stroke-width:1;"/><text fill="#000000" font-family="sans-serif" font-size="13" lengthAdjust="spacing" textLength="125.2583" x="998.97" y="148.9169">renders on success</text></g><!--reverse link Manager to Data--><g class="link" data-entity-1="ent0011" data-entity-2="ent0012" data-link-type="composition" data-source-line="44" id="lnk27"><path d="M1285.97,271.51 C1285.97,302.45 1285.97,354.42 1285.97,385.34" fill="none" id="Manager-backto-Data" style="stroke:#181818;stroke-width:1;"/><polygon fill="#181818" points="1285.97,259.51,1281.97,265.51,1285.97,271.51,1289.97,265.51,1285.97,259.51" style="stroke:#181818;stroke-width:1;"/><text fill="#000000" font-family="sans-serif" font-size="13" lengthAdjust="spacing" textLength="55.0278" x="1286.97" y="311.7569">contains</text></g><!--link View to View Protocol--><g class="link" data-entity-1="ent0005" data-entity-2="ent0016" data-link-type="extension" data-source-line="46" id="lnk28"><path d="M590.52,259.51 C600.34,290.45 615.1816,337.2612 624.9816,368.1812" fill="none" id="View-to-View Protocol" style="stroke:#181818;stroke-width:1;stroke-dasharray:7,7;"/><polygon fill="none" points="630.42,385.34,630.7012,366.3684,619.262,369.994,630.42,385.34" style="stroke:#181818;stroke-width:1;"/></g><!--link ErrorView to View Protocol--><g class="link" data-entity-1="ent0006" data-entity-2="ent0016" data-link-type="extension" data-source-line="47" id="lnk29"><path d="M890.82,259.51 C835.8,290.45 737.7598,345.5979 682.7698,376.5179" fill="none" id="ErrorView-to-View Protocol" style="stroke:#181818;stroke-width:1;stroke-dasharray:7,7;"/><polygon fill="none" points="667.08,385.34,685.7105,381.7478,679.8291,371.2879,667.08,385.34" style="stroke:#181818;stroke-width:1;"/></g><!--link SuccessView to View Protocol--><g class="link" data-entity-1="ent0007" data-entity-2="ent0016" data-link-type="extension" data-source-line="48" id="lnk30"><path d="M736.66,259.51 C714.93,290.45 680.3398,339.6931 658.6098,370.6131" fill="none" id="SuccessView-to-View Protocol" style="stroke:#181818;stroke-width:1;stroke-dasharray:7,7;"/><polygon fill="none" points="648.26,385.34,663.5188,374.063,653.7008,367.1632,648.26,385.34" style="stroke:#181818;stroke-width:1;"/></g><!--link Modifier to GMN34--><g class="link" data-entity-1="ent0013" data-entity-2="ent0035" data-link-type="association" data-source-line="57" id="lnk36"><path d="M1371.99,93.28 C1433.32,106.53 1522.45,129.1 1595.97,160.85 C1628.6,174.94 1662.82,196.07 1687.96,212.95" fill="none" id="Modifier-GMN34" style="stroke:#181818;stroke-width:1;stroke-dasharray:7,7;"/></g><!--link GMN37 to ViewModel--><g class="link" data-entity-1="ent0038" data-entity-2="ent0009" data-link-type="association" data-source-line="63" id="lnk39"><path d="M127.16,106.02 C130.89,120.27 136.24,137.87 142.97,152.85 C154.43,178.33 172.14,205.34 184.13,222.41" fill="none" id="GMN37-ViewModel" style="stroke:#181818;stroke-width:1;stroke-dasharray:7,7;"/></g><?plantuml-src TLHDZzf03BtdLxXxQf7WKAcNFQ1kWLP8-r4jT2yL1nDCc3ACena3MhNzx_KCIKXOUahYz-pdpxnRqTeuWkV9Q7xt-Er-0hd54B8iR8qhqUCESjwLxCZ9J5ujWQTSq1MMigp4V8i5mSrTMS8zlfA_WTyPmCyvOv07T0hwCUrOyGLW07rcVrj-BuQE7SSHEr6bQ4yEyINQ9zwpJr4RA9bgVBRFSmgXowYCYNEf-i0hil-JJc2Zdxuw0ThbmOWzNIaxkLVl3JP6mGJ4byQAIqigOjQcTgi-EgAperdBZobyrPdGaVss4dt4WobG3BkPA7SHRQcltpqBvsmNCKoSKBy_h3E2MyWzeL1eaEHp2yPfGaxC6-pKiKZufHiGe5riGxn8Hkb7ZsLGfonB0fVHU1d87rGgeOF1i2bUGInBQoZ0GEeslVzmYdDoloW8hGqGDdnCgKLg4wlBh4L1WmgTML6-MIlbUN8hyW7O0KLpbzbQhoutd02LhnHx_NwQU4nIjmornrbTy9_Xct6TKxWAjtMl4ZB7edTgYeq0hrjBsEjzVagbnrRsUcgPcNZ9rT1pWbAprQuhShSNxgzCs9aG0DUYmCV1fv1fcH3ZLofB5k5TagcN5kAPwznMW0AkMGZmpABWKztyDDJJ223Vw2z5jm3WkUgZPk6vz74FA-OXtl65l70PjSzd2l1b7_I7fabRBamEDfwuckVQZo86Ji42B35eXd6o1xtwg3nDYwt6Wq4OJnkfVm00?></g></svg>