<svg xmlns="http://www.w3.org/2000/svg" xmlns:xlink="http://www.w3.org/1999/xlink" contentStyleType="text/css" data-diagram-type="CLASS" height="448px" preserveAspectRatio="none" style="width:1075px;height:448px;background:#FFFFFF;" version="1.1" viewBox="0 0 1075 448" width="1075px" zoomAndPan="magnify"><?plantuml 1.2026.3beta6?><defs/><g><!--class ToastManager--><g class="entity" data-qualified-name="ToastManager" data-source-line="4" id="ent0002"><rect fill="#F1F1F1" height="80.5938" rx="2.5" ry="2.5" style="stroke:#181818;stroke-width:0.5;" width="457.915" x="7" y="212.78"/><ellipse cx="181.7847" cy="228.78" fill="#ADD1B2" rx="11" ry="11" style="stroke:#181818;stroke-width:1;"/><path d="M184.7534,234.4206 Q184.1753,234.7175 183.5347,234.8581 Q182.894,235.0144 182.1909,235.0144 Q179.6909,235.0144 178.3628,233.3738 Q177.0503,231.7175 177.0503,228.5925 Q177.0503,225.4675 178.3628,223.8113 Q179.6909,222.155 182.1909,222.155 Q182.894,222.155 183.5347,222.3113 Q184.1909,222.4675 184.7534,222.7644 L184.7534,225.4831 Q184.1284,224.905 183.5347,224.6394 Q182.9409,224.3581 182.3159,224.3581 Q180.9722,224.3581 180.2847,225.4363 Q179.5972,226.4988 179.5972,228.5925 Q179.5972,230.6863 180.2847,231.7644 Q180.9722,232.8269 182.3159,232.8269 Q182.9409,232.8269 183.5347,232.5613 Q184.1284,232.28 184.7534,231.7019 L184.7534,234.4206 Z " fill="#000000"/><text fill="#000000" font-family="sans-serif" font-size="14" lengthAdjust="spacing" textLength="99.8457" x="202.2847" y="233.6267">ToastManager</text><line style="stroke:#181818;stroke-width:0.5;" x1="8" x2="463.915" y1="244.78" y2="244.78"/><text fill="#000000" font-family="sans-serif" font-size="14" lengthAdjust="spacing" textLength="128.9736" x="13" y="261.7751">-toast: ToastData?</text><line style="stroke:#181818;stroke-width:0.5;" x1="8" x2="463.915" y1="269.0769" y2="269.0769"/><text fill="#000000" font-family="sans-serif" font-size="14" lengthAdjust="spacing" textLength="445.915" x="13" y="286.072">+showToast(toast: ToastData, autoDismissDelay: TimeInterval)</text></g><!--class ToastData--><g class="entity" data-qualified-name="ToastData" data-source-line="9" id="ent0003"><rect fill="#F1F1F1" height="80.5938" rx="2.5" ry="2.5" style="stroke:#181818;stroke-width:0.5;" width="119.4678" x="176.22" y="353.38"/><ellipse cx="198.2222" cy="369.38" fill="#EB937F" rx="11" ry="11" style="stroke:#181818;stroke-width:1;"/><path d="M202.3316,375.38 L194.6129,375.38 L194.6129,362.9894 L202.3316,362.9894 L202.3316,365.1456 L197.066,365.1456 L197.066,367.8175 L201.8316,367.8175 L201.8316,369.9738 L197.066,369.9738 L197.066,373.2238 L202.3316,373.2238 L202.3316,375.38 Z " fill="#000000"/><text fill="#000000" font-family="sans-serif" font-size="14" lengthAdjust="spacing" textLength="71.9072" x="213.7783" y="374.2267">ToastData</text><line style="stroke:#181818;stroke-width:0.5;" x1="177.22" x2="294.6878" y1="385.38" y2="385.38"/><line style="stroke:#181818;stroke-width:0.5;" x1="177.22" x2="294.6878" y1="393.38" y2="393.38"/><text fill="#000000" font-family="sans-serif" font-size="14" lengthAdjust="spacing" textLength="107.4678" x="182.22" y="410.3751">success(String)</text><text fill="#000000" font-family="sans-serif" font-size="14" lengthAdjust="spacing" textLength="87.1514" x="182.22" y="426.672">error(String)</text></g><!--class ToastableModifier--><g class="entity" data-qualified-name="ToastableModifier" data-source-line="14" id="ent0004"><rect fill="#F1F1F1" height="80.5938" rx="2.5" ry="2.5" style="stroke:#181818;stroke-width:0.5;" width="272.9824" x="656.47" y="39.59"/><ellipse cx="726.1829" cy="55.59" fill="#ADD1B2" rx="11" ry="11" style="stroke:#181818;stroke-width:1;"/><path d="M729.1516,61.2306 Q728.5735,61.5275 727.9329,61.6681 Q727.2923,61.8244 726.5891,61.8244 Q724.0891,61.8244 722.761,60.1838 Q721.4485,58.5275 721.4485,55.4025 Q721.4485,52.2775 722.761,50.6213 Q724.0891,48.965 726.5891,48.965 Q727.2923,48.965 727.9329,49.1213 Q728.5891,49.2775 729.1516,49.5744 L729.1516,52.2931 Q728.5266,51.715 727.9329,51.4494 Q727.3391,51.1681 726.7141,51.1681 Q725.3704,51.1681 724.6829,52.2463 Q723.9954,53.3088 723.9954,55.4025 Q723.9954,57.4963 724.6829,58.5744 Q725.3704,59.6369 726.7141,59.6369 Q727.3391,59.6369 727.9329,59.3713 Q728.5266,59.09 729.1516,58.5119 L729.1516,61.2306 Z " fill="#000000"/><text fill="#000000" font-family="sans-serif" font-size="14" lengthAdjust="spacing" textLength="125.0566" x="746.6829" y="60.4367">ToastableModifier</text><line style="stroke:#181818;stroke-width:0.5;" x1="657.47" x2="928.4524" y1="71.59" y2="71.59"/><text fill="#000000" font-family="sans-serif" font-size="14" lengthAdjust="spacing" textLength="210.8477" x="662.47" y="88.5851">-toastManager: ToastManager</text><line style="stroke:#181818;stroke-width:0.5;" x1="657.47" x2="928.4524" y1="95.8869" y2="95.8869"/><text fill="#000000" font-family="sans-serif" font-size="14" lengthAdjust="spacing" textLength="260.9824" x="662.47" y="112.882">+body(content: Content): some View</text></g><!--class ErrorToastView--><g class="entity" data-qualified-name="ErrorToastView" data-source-line="19" id="ent0005"><rect fill="#F1F1F1" height="80.5938" rx="2.5" ry="2.5" style="stroke:#181818;stroke-width:0.5;" width="143.6123" x="721.15" y="212.78"/><ellipse cx="738.3657" cy="228.78" fill="#ADD1B2" rx="11" ry="11" style="stroke:#181818;stroke-width:1;"/><path d="M741.3345,234.4206 Q740.7563,234.7175 740.1157,234.8581 Q739.4751,235.0144 738.772,235.0144 Q736.272,235.0144 734.9438,233.3738 Q733.6313,231.7175 733.6313,228.5925 Q733.6313,225.4675 734.9438,223.8113 Q736.272,222.155 738.772,222.155 Q739.4751,222.155 740.1157,222.3113 Q740.772,222.4675 741.3345,222.7644 L741.3345,225.4831 Q740.7095,224.905 740.1157,224.6394 Q739.522,224.3581 738.897,224.3581 Q737.5532,224.3581 736.8657,225.4363 Q736.1782,226.4988 736.1782,228.5925 Q736.1782,230.6863 736.8657,231.7644 Q737.5532,232.8269 738.897,232.8269 Q739.522,232.8269 740.1157,232.5613 Q740.7095,232.28 741.3345,231.7019 L741.3345,234.4206 Z " fill="#000000"/><text fill="#000000" font-family="sans-serif" font-size="14" lengthAdjust="spacing" textLength="106.6885" x="752.8581" y="233.6267">ErrorToastView</text><line style="stroke:#181818;stroke-width:0.5;" x1="722.15" x2="863.7623" y1="244.78" y2="244.78"/><text fill="#000000" font-family="sans-serif" font-size="14" lengthAdjust="spacing" textLength="90.4463" x="727.15" y="261.7751">-error: String</text><text fill="#000000" font-family="sans-serif" font-size="14" lengthAdjust="spacing" textLength="131.6123" x="727.15" y="278.072">+body: some View</text><line style="stroke:#181818;stroke-width:0.5;" x1="722.15" x2="863.7623" y1="285.3738" y2="285.3738"/></g><!--class SuccessToastView--><g class="entity" data-qualified-name="SuccessToastView" data-source-line="24" id="ent0006"><rect fill="#F1F1F1" height="80.5938" rx="2.5" ry="2.5" style="stroke:#181818;stroke-width:0.5;" width="160.3652" x="899.77" y="212.78"/><ellipse cx="914.77" cy="228.78" fill="#ADD1B2" rx="11" ry="11" style="stroke:#181818;stroke-width:1;"/><path d="M917.7388,234.4206 Q917.1606,234.7175 916.52,234.8581 Q915.8794,235.0144 915.1763,235.0144 Q912.6763,235.0144 911.3481,233.3738 Q910.0356,231.7175 910.0356,228.5925 Q910.0356,225.4675 911.3481,223.8113 Q912.6763,222.155 915.1763,222.155 Q915.8794,222.155 916.52,222.3113 Q917.1763,222.4675 917.7388,222.7644 L917.7388,225.4831 Q917.1138,224.905 916.52,224.6394 Q915.9263,224.3581 915.3013,224.3581 Q913.9575,224.3581 913.27,225.4363 Q912.5825,226.4988 912.5825,228.5925 Q912.5825,230.6863 913.27,231.7644 Q913.9575,232.8269 915.3013,232.8269 Q915.9263,232.8269 916.52,232.5613 Q917.1138,232.28 917.7388,231.7019 L917.7388,234.4206 Z " fill="#000000"/><text fill="#000000" font-family="sans-serif" font-size="14" lengthAdjust="spacing" textLength="128.3652" x="928.77" y="233.6267">SuccessToastView</text><line style="stroke:#181818;stroke-width:0.5;" x1="900.77" x2="1059.1352" y1="244.78" y2="244.78"/><text fill="#000000" font-family="sans-serif" font-size="14" lengthAdjust="spacing" textLength="118.918" x="905.77" y="261.7751">-message: String</text><text fill="#000000" font-family="sans-serif" font-size="14" lengthAdjust="spacing" textLength="131.6123" x="905.77" y="278.072">+body: some View</text><line style="stroke:#181818;stroke-width:0.5;" x1="900.77" x2="1059.1352" y1="285.3738" y2="285.3738"/></g><!--class ContentViewModel--><g class="entity" data-qualified-name="ContentViewModel" data-source-line="29" id="ent0007"><rect fill="#F1F1F1" height="145.7813" rx="2.5" ry="2.5" style="stroke:#181818;stroke-width:0.5;" width="222.8477" x="124.53" y="7"/><ellipse cx="166.352" cy="23" fill="#ADD1B2" rx="11" ry="11" style="stroke:#181818;stroke-width:1;"/><path d="M169.3208,28.6406 Q168.7426,28.9375 168.102,29.0781 Q167.4614,29.2344 166.7583,29.2344 Q164.2583,29.2344 162.9301,27.5938 Q161.6176,25.9375 161.6176,22.8125 Q161.6176,19.6875 162.9301,18.0313 Q164.2583,16.375 166.7583,16.375 Q167.4614,16.375 168.102,16.5313 Q168.7583,16.6875 169.3208,16.9844 L169.3208,19.7031 Q168.6958,19.125 168.102,18.8594 Q167.5083,18.5781 166.8833,18.5781 Q165.5395,18.5781 164.852,19.6563 Q164.1645,20.7188 164.1645,22.8125 Q164.1645,24.9063 164.852,25.9844 Q165.5395,27.0469 166.8833,27.0469 Q167.5083,27.0469 168.102,26.7813 Q168.6958,26.5 169.3208,25.9219 L169.3208,28.6406 Z " fill="#000000"/><text fill="#000000" font-family="sans-serif" font-size="14" lengthAdjust="spacing" textLength="131.2432" x="186.3125" y="27.8467">ContentViewModel</text><line style="stroke:#181818;stroke-width:0.5;" x1="125.53" x2="346.3777" y1="39" y2="39"/><text fill="#000000" font-family="sans-serif" font-size="14" lengthAdjust="spacing" textLength="210.8477" x="130.53" y="55.9951">-toastManager: ToastManager</text><text fill="#000000" font-family="sans-serif" font-size="14" lengthAdjust="spacing" textLength="86.5771" x="130.53" y="72.292">-counter: Int</text><text fill="#000000" font-family="sans-serif" font-size="14" lengthAdjust="spacing" textLength="111.5078" x="130.53" y="88.5889">-isLoading: Bool</text><line style="stroke:#181818;stroke-width:0.5;" x1="125.53" x2="346.3777" y1="95.8906" y2="95.8906"/><text fill="#000000" font-family="sans-serif" font-size="14" lengthAdjust="spacing" textLength="153.6719" x="130.53" y="112.8857">+showSuccessToast()</text><text fill="#000000" font-family="sans-serif" font-size="14" lengthAdjust="spacing" textLength="131.9951" x="130.53" y="129.1826">+showErrorToast()</text><text fill="#000000" font-family="sans-serif" font-size="14" lengthAdjust="spacing" textLength="190.1963" x="130.53" y="145.4795">+performAsyncOperation()</text></g><g class="entity" data-qualified-name="GMN13" data-source-line="45" id="ent0014"><path d="M500.06,232.95 L500.06,249.97 L465.33,253.97 L500.06,257.97 L500.06,273.2156 A0,0 0 0 0 500.06,273.2156 L685.8579,273.2156 A0,0 0 0 0 685.8579,273.2156 L685.8579,242.95 L675.8579,232.95 L500.06,232.95 A0,0 0 0 0 500.06,232.95" fill="#FEFFDD" style="stroke:#181818;stroke-width:0.5;"/><path d="M675.8579,232.95 L675.8579,242.95 L685.8579,242.95 L675.8579,232.95" fill="#FEFFDD" style="stroke:#181818;stroke-width:0.5;"/><text fill="#000000" font-family="sans-serif" font-size="13" lengthAdjust="spacing" textLength="123.5254" x="506.06" y="250.0169">@Observable class</text><text fill="#000000" font-family="sans-serif" font-size="13" lengthAdjust="spacing" textLength="164.7979" x="506.06" y="265.1497">Auto-dismisses after 2.5s</text></g><g class="entity" data-qualified-name="GMN16" data-source-line="50" id="ent0017"><path d="M330.79,373.54 L330.79,389.97 L296.17,393.97 L330.79,397.97 L330.79,413.8056 A0,0 0 0 0 330.79,413.8056 L537.1225,413.8056 A0,0 0 0 0 537.1225,413.8056 L537.1225,383.54 L527.1225,373.54 L330.79,373.54 A0,0 0 0 0 330.79,373.54" fill="#FEFFDD" style="stroke:#181818;stroke-width:0.5;"/><path d="M527.1225,373.54 L527.1225,383.54 L537.1225,383.54 L527.1225,373.54" fill="#FEFFDD" style="stroke:#181818;stroke-width:0.5;"/><text fill="#000000" font-family="sans-serif" font-size="13" lengthAdjust="spacing" textLength="106.8691" x="336.79" y="390.6069">Equatable enum</text><text fill="#000000" font-family="sans-serif" font-size="13" lengthAdjust="spacing" textLength="185.3325" x="336.79" y="405.7397">Extensible for warnings, info</text></g><!--reverse link ToastManager to ToastData--><g class="link" data-entity-1="ent0002" data-entity-2="ent0003" data-link-type="composition" data-source-line="38" id="lnk8"><path codeLine="38" d="M235.96,305.74 C235.96,324.4 235.96,334.46 235.96,353.1" fill="none" id="ToastManager-backto-ToastData" style="stroke:#181818;stroke-width:1;"/><polygon fill="#181818" points="235.96,293.74,231.96,299.74,235.96,305.74,239.96,299.74,235.96,293.74" style="stroke:#181818;stroke-width:1;"/><text fill="#000000" font-family="sans-serif" font-size="13" lengthAdjust="spacing" textLength="59.8584" x="236.96" y="319.4869">manages</text><text fill="#000000" font-family="sans-serif" font-size="13" lengthAdjust="spacing" textLength="8.271" x="227.3445" y="313.4935">1</text><text fill="#000000" font-family="sans-serif" font-size="13" lengthAdjust="spacing" textLength="24.8066" x="210.0403" y="342.2152">0..1</text></g><!--link ToastableModifier to ToastManager--><g class="link" data-entity-1="ent0004" data-entity-2="ent0002" data-link-type="dependency" data-source-line="39" id="lnk9"><path codeLine="39" d="M671.16,120.51 C671.16,162.81 671.16,222.97 671.16,222.97 C671.16,222.97 576.08,222.97 471.35,222.97" fill="none" id="ToastableModifier-to-ToastManager" style="stroke:#181818;stroke-width:1;"/><polygon fill="#181818" points="465.35,222.97,474.35,226.97,470.35,222.97,474.35,218.97,465.35,222.97" style="stroke:#181818;stroke-width:1;"/><text fill="#000000" font-family="sans-serif" font-size="13" lengthAdjust="spacing" textLength="58.7856" x="560.48" y="219.0369">observes</text></g><!--link ToastableModifier to ErrorToastView--><g class="link" data-entity-1="ent0004" data-entity-2="ent0005" data-link-type="dependency" data-source-line="40" id="lnk10"><path codeLine="40" d="M792.96,120.5 C792.96,148.19 792.96,178.73 792.96,206.43" fill="none" id="ToastableModifier-to-ErrorToastView" style="stroke:#181818;stroke-width:1;stroke-dasharray:7,7;"/><polygon fill="#181818" points="792.96,212.43,796.96,203.43,792.96,207.43,788.96,203.43,792.96,212.43" style="stroke:#181818;stroke-width:1;"/><text fill="#000000" font-family="sans-serif" font-size="13" lengthAdjust="spacing" textLength="48.3247" x="743.96" y="162.5269">creates</text></g><!--link ToastableModifier to SuccessToastView--><g class="link" data-entity-1="ent0004" data-entity-2="ent0006" data-link-type="dependency" data-source-line="41" id="lnk11"><path codeLine="41" d="M914.61,120.5 C914.61,148.19 914.61,178.73 914.61,206.43" fill="none" id="ToastableModifier-to-SuccessToastView" style="stroke:#181818;stroke-width:1;stroke-dasharray:7,7;"/><polygon fill="#181818" points="914.61,212.43,918.61,203.43,914.61,207.43,910.61,203.43,914.61,212.43" style="stroke:#181818;stroke-width:1;"/><text fill="#000000" font-family="sans-serif" font-size="13" lengthAdjust="spacing" textLength="48.3247" x="865.61" y="162.5269">creates</text></g><!--link ContentViewModel to ToastManager--><g class="link" data-entity-1="ent0007" data-entity-2="ent0002" data-link-type="dependency" data-source-line="42" id="lnk12"><path codeLine="42" d="M235.96,153.09 C235.96,173.4 235.96,188.72 235.96,206.42" fill="none" id="ContentViewModel-to-ToastManager" style="stroke:#181818;stroke-width:1;"/><polygon fill="#181818" points="235.96,212.42,239.96,203.42,235.96,207.42,231.96,203.42,235.96,212.42" style="stroke:#181818;stroke-width:1;"/><text fill="#000000" font-family="sans-serif" font-size="13" lengthAdjust="spacing" textLength="29.7832" x="205.96" y="178.8269">uses</text></g><?plantuml-src ZLF1Rjim3BthAuYSdBKskW6xwD0jMteeiAA73BqhDfq8iyLCb9TbHV-zb1pOTP81lKbFvECZ7yM_hDiPRree6yEy2C7RTHVmlYItilyGRXGF8Orr60ux1F9XIqgb5FX9XiE3SMQ37fuLG0uXGhf_MPfWlWXw1RobVOAoq_ThC5sWfUNMCY-nCGTvj2tUku3-ZsdcwaKfT5qxfgHAt9KbCcShKUqsSq7GU_B3_MMYqQmRVA3ArdOgzAXTJpf9YjTK7JAPH40dSh_tXxa6fXRXoU9-h70N2oU2Y1_faneDlPo1yMB-gc_bbA4LJEIyZ-CeC8BI9pRlQJA7aheuPWqoxGHO_a6caceQlX4rWtTl9MRp0HuxFu8xz3NvTi47LpxAnGHBBajkJ7Pbzd467_8SPZT58SVHMWrj2c5rxbkUtqutJWEjMRRaOdHHt9uwew7qQC9_my-C61FEvdj1JCSIg1m516ytsm1KduxywsCI72ltlqwmXUn_NlKV01bCBOx0f-8pozfN4EakaiPnIVRTxywaJY1-aWZy5Q5i8o9MmDvu9txoDLXNqq3v2W00?></g></svg>