<svg xmlns="http://www.w3.org/2000/svg" xmlns:xlink="http://www.w3.org/1999/xlink" contentStyleType="text/css" data-diagram-type="SEQUENCE" height="769px" preserveAspectRatio="none" style="width:974px;height:769px;background:#FFFFFF;" version="1.1" viewBox="0 0 974 769" width="974px" zoomAndPan="magnify"><?plantuml 1.2026.3beta6?><defs/><g><g><title>ContentView</title><rect fill="#FFFFFF" height="227.7969" style="stroke:#181818;stroke-width:1;" width="10" x="114.125" y="112.4297"/></g><g><title>ContentViewModel</title><rect fill="#FFFFFF" height="198.6641" style="stroke:#181818;stroke-width:1;" width="10" x="248.3511" y="141.5625"/></g><g><title>ToastManager</title><rect fill="#FFFFFF" height="113.3984" style="stroke:#181818;stroke-width:1;" width="10" x="490.8862" y="212.8281"/></g><g><title>ToastManager</title><rect fill="#FFFFFF" height="29.1328" style="stroke:#181818;stroke-width:1;" width="10" x="490.8862" y="369.3594"/></g><g><title>ToastManager</title><rect fill="#FFFFFF" height="76.2656" style="stroke:#181818;stroke-width:1;" width="10" x="490.8862" y="534.6953"/></g><g><title>ToastableModifier</title><rect fill="#FFFFFF" height="87.3984" style="stroke:#181818;stroke-width:1;" width="10" x="736.4727" y="369.3594"/></g><g><title>ToastableModifier</title><rect fill="#FFFFFF" height="58.2656" style="stroke:#181818;stroke-width:1;" width="10" x="736.4727" y="610.9609"/></g><g><title>ErrorToastView</title><rect fill="#FFFFFF" height="29.1328" style="stroke:#181818;stroke-width:1;" width="10" x="887.5508" y="427.625"/></g><g><title>ErrorToastView</title><rect fill="#FFFFFF" height="29.1328" style="stroke:#181818;stroke-width:1;" width="10" x="887.5508" y="640.0938"/></g><g class="participant-lifeline" data-entity-uid="part1" data-qualified-name="User" data-source-line="1" id="part1-lifeline"><g><title>User</title><rect fill="#000000" fill-opacity="0.00000" height="383.4609" width="8" x="19.9551" y="81.2969"/><line style="stroke:#181818;stroke-width:0.5;stroke-dasharray:5,5;" x1="23" x2="23" y1="81.2969" y2="464.7578"/></g><line style="stroke:#181818;stroke-width:0.5;stroke-dasharray:1,4;" x1="23" x2="23" y1="464.7578" y2="505.5625"/><g><title>User</title><rect fill="#000000" fill-opacity="0.00000" height="181.6641" width="8" x="19.9551" y="505.5625"/><line style="stroke:#181818;stroke-width:0.5;stroke-dasharray:5,5;" x1="23" x2="23" y1="505.5625" y2="687.2266"/></g></g><g class="participant-lifeline" data-entity-uid="part2" data-qualified-name="ContentView" data-source-line="2" id="part2-lifeline"><g><title>ContentView</title><rect fill="#000000" fill-opacity="0.00000" height="383.4609" width="8" x="115.125" y="81.2969"/><line style="stroke:#181818;stroke-width:0.5;stroke-dasharray:5,5;" x1="118.5205" x2="118.5205" y1="81.2969" y2="464.7578"/></g><line style="stroke:#181818;stroke-width:0.5;stroke-dasharray:1,4;" x1="118.5205" x2="118.5205" y1="464.7578" y2="505.5625"/><g><title>ContentView</title><rect fill="#000000" fill-opacity="0.00000" height="181.6641" width="8" x="115.125" y="505.5625"/><line style="stroke:#181818;stroke-width:0.5;stroke-dasharray:5,5;" x1="118.5205" x2="118.5205" y1="505.5625" y2="687.2266"/></g></g><g class="participant-lifeline" data-entity-uid="part3" data-qualified-name="ContentViewModel" data-source-line="3" id="part3-lifeline"><g><title>ContentViewModel</title><rect fill="#000000" fill-opacity="0.00000" height="383.4609" width="8" x="249.3511" y="81.2969"/><line style="stroke:#181818;stroke-width:0.5;stroke-dasharray:5,5;" x1="252.7295" x2="252.7295" y1="81.2969" y2="464.7578"/></g><line style="stroke:#181818;stroke-width:0.5;stroke-dasharray:1,4;" x1="252.7295" x2="252.7295" y1="464.7578" y2="505.5625"/><g><title>ContentViewModel</title><rect fill="#000000" fill-opacity="0.00000" height="181.6641" width="8" x="249.3511" y="505.5625"/><line style="stroke:#181818;stroke-width:0.5;stroke-dasharray:5,5;" x1="252.7295" x2="252.7295" y1="505.5625" y2="687.2266"/></g></g><g class="participant-lifeline" data-entity-uid="part4" data-qualified-name="ToastManager" data-source-line="4" id="part4-lifeline"><g><title>ToastManager</title><rect fill="#000000" fill-opacity="0.00000" height="383.4609" width="8" x="491.8862" y="81.2969"/><line style="stroke:#181818;stroke-width:0.5;stroke-dasharray:5,5;" x1="494.9634" x2="494.9634" y1="81.2969" y2="464.7578"/></g><line style="stroke:#181818;stroke-width:0.5;stroke-dasharray:1,4;" x1="494.9634" x2="494.9634" y1="464.7578" y2="505.5625"/><g><title>ToastManager</title><rect fill="#000000" fill-opacity="0.00000" height="181.6641" width="8" x="491.8862" y="505.5625"/><line style="stroke:#181818;stroke-width:0.5;stroke-dasharray:5,5;" x1="494.9634" x2="494.9634" y1="505.5625" y2="687.2266"/></g></g><g class="participant-lifeline" data-entity-uid="part5" data-qualified-name="ToastableModifier" data-source-line="5" id="part5-lifeline"><g><title>ToastableModifier</title><rect fill="#000000" fill-opacity="0.00000" height="383.4609" width="8" x="737.4727" y="81.2969"/><line style="stroke:#181818;stroke-width:0.5;stroke-dasharray:5,5;" x1="740.9443" x2="740.9443" y1="81.2969" y2="464.7578"/></g><line style="stroke:#181818;stroke-width:0.5;stroke-dasharray:1,4;" x1="740.9443" x2="740.9443" y1="464.7578" y2="505.5625"/><g><title>ToastableModifier</title><rect fill="#000000" fill-opacity="0.00000" height="181.6641" width="8" x="737.4727" y="505.5625"/><line style="stroke:#181818;stroke-width:0.5;stroke-dasharray:5,5;" x1="740.9443" x2="740.9443" y1="505.5625" y2="687.2266"/></g></g><g class="participant-lifeline" data-entity-uid="part6" data-qualified-name="ToastView" data-source-line="6" id="part6-lifeline"><g><title>ErrorToastView</title><rect fill="#000000" fill-opacity="0.00000" height="383.4609" width="8" x="888.5508" y="81.2969"/><line style="stroke:#181818;stroke-width:0.5;stroke-dasharray:5,5;" x1="892.3682" x2="892.3682" y1="81.2969" y2="464.7578"/></g><line style="stroke:#181818;stroke-width:0.5;stroke-dasharray:1,4;" x1="892.3682" x2="892.3682" y1="464.7578" y2="505.5625"/><g><title>ErrorToastView</title><rect fill="#000000" fill-opacity="0.00000" height="181.6641" width="8" x="888.5508" y="505.5625"/><line style="stroke:#181818;stroke-width:0.5;stroke-dasharray:5,5;" x1="892.3682" x2="892.3682" y1="505.5625" y2="687.2266"/></g></g><g class="participant participant-head" data-entity-uid="part1" data-qualified-name="User" data-source-line="1" id="part1-head"><text fill="#000000" font-family="sans-serif" font-size="14" lengthAdjust="spacing" textLength="31.9102" x="5" y="77.9951">User</text><ellipse cx="23.9551" cy="13.5" fill="#E2E2F0" rx="8" ry="8" style="stroke:#181818;stroke-width:0.5;"/><path d="M23.9551,21.5 L23.9551,48.5 M10.9551,29.5 L36.9551,29.5 M23.9551,48.5 L10.9551,63.5 M23.9551,48.5 L36.9551,63.5" fill="none" style="stroke:#181818;stroke-width:0.5;"/></g><g class="participant participant-tail" data-entity-uid="part1" data-qualified-name="User" data-source-line="1" id="part1-tail"><text fill="#000000" font-family="sans-serif" font-size="14" lengthAdjust="spacing" textLength="31.9102" x="5" y="699.2217">User</text><ellipse cx="23.9551" cy="711.0234" fill="#E2E2F0" rx="8" ry="8" style="stroke:#181818;stroke-width:0.5;"/><path d="M23.9551,719.0234 L23.9551,746.0234 M10.9551,727.0234 L36.9551,727.0234 M23.9551,746.0234 L10.9551,761.0234 M23.9551,746.0234 L36.9551,761.0234" fill="none" style="stroke:#181818;stroke-width:0.5;"/></g><g class="participant participant-head" data-entity-uid="part2" data-qualified-name="ContentView" data-source-line="2" id="part2-head"><rect fill="#E2E2F0" height="30.2969" rx="2.5" ry="2.5" style="stroke:#181818;stroke-width:0.5;" width="103.209" x="67.5205" y="50"/><text fill="#000000" font-family="sans-serif" font-size="14" lengthAdjust="spacing" textLength="89.209" x="74.5205" y="69.9951">ContentView</text></g><g class="participant participant-tail" data-entity-uid="part2" data-qualified-name="ContentView" data-source-line="2" id="part2-tail"><rect fill="#E2E2F0" height="30.2969" rx="2.5" ry="2.5" style="stroke:#181818;stroke-width:0.5;" width="103.209" x="67.5205" y="686.2266"/><text fill="#000000" font-family="sans-serif" font-size="14" lengthAdjust="spacing" textLength="89.209" x="74.5205" y="706.2217">ContentView</text></g><g class="participant participant-head" data-entity-uid="part3" data-qualified-name="ContentViewModel" data-source-line="3" id="part3-head"><rect fill="#E2E2F0" height="30.2969" rx="2.5" ry="2.5" style="stroke:#181818;stroke-width:0.5;" width="145.2432" x="180.7295" y="50"/><text fill="#000000" font-family="sans-serif" font-size="14" lengthAdjust="spacing" textLength="131.2432" x="187.7295" y="69.9951">ContentViewModel</text></g><g class="participant participant-tail" data-entity-uid="part3" data-qualified-name="ContentViewModel" data-source-line="3" id="part3-tail"><rect fill="#E2E2F0" height="30.2969" rx="2.5" ry="2.5" style="stroke:#181818;stroke-width:0.5;" width="145.2432" x="180.7295" y="686.2266"/><text fill="#000000" font-family="sans-serif" font-size="14" lengthAdjust="spacing" textLength="131.2432" x="187.7295" y="706.2217">ContentViewModel</text></g><g class="participant participant-head" data-entity-uid="part4" data-qualified-name="ToastManager" data-source-line="4" id="part4-head"><rect fill="#E2E2F0" height="30.2969" rx="2.5" ry="2.5" style="stroke:#181818;stroke-width:0.5;" width="113.8457" x="438.9634" y="50"/><text fill="#000000" font-family="sans-serif" font-size="14" lengthAdjust="spacing" textLength="99.8457" x="445.9634" y="69.9951">ToastManager</text></g><g class="participant participant-tail" data-entity-uid="part4" data-qualified-name="ToastManager" data-source-line="4" id="part4-tail"><rect fill="#E2E2F0" height="30.2969" rx="2.5" ry="2.5" style="stroke:#181818;stroke-width:0.5;" width="113.8457" x="438.9634" y="686.2266"/><text fill="#000000" font-family="sans-serif" font-size="14" lengthAdjust="spacing" textLength="99.8457" x="445.9634" y="706.2217">ToastManager</text></g><g class="participant participant-head" data-entity-uid="part5" data-qualified-name="ToastableModifier" data-source-line="5" id="part5-head"><rect fill="#E2E2F0" height="30.2969" rx="2.5" ry="2.5" style="stroke:#181818;stroke-width:0.5;" width="139.0566" x="671.9443" y="50"/><text fill="#000000" font-family="sans-serif" font-size="14" lengthAdjust="spacing" textLength="125.0566" x="678.9443" y="69.9951">ToastableModifier</text></g><g class="participant participant-tail" data-entity-uid="part5" data-qualified-name="ToastableModifier" data-source-line="5" id="part5-tail"><rect fill="#E2E2F0" height="30.2969" rx="2.5" ry="2.5" style="stroke:#181818;stroke-width:0.5;" width="139.0566" x="671.9443" y="686.2266"/><text fill="#000000" font-family="sans-serif" font-size="14" lengthAdjust="spacing" textLength="125.0566" x="678.9443" y="706.2217">ToastableModifier</text></g><g class="participant participant-head" data-entity-uid="part6" data-qualified-name="ToastView" data-source-line="6" id="part6-head"><rect fill="#E2E2F0" height="62.8906" rx="2.5" ry="2.5" style="stroke:#181818;stroke-width:0.5;" width="142.3652" x="821.3682" y="17.4063"/><text fill="#000000" font-family="sans-serif" font-size="14" lengthAdjust="spacing" textLength="106.6885" x="839.2065" y="37.4014">ErrorToastView</text><text fill="#000000" font-family="sans-serif" font-size="14" lengthAdjust="spacing" textLength="14.3213" x="885.3901" y="53.6982">or</text><text fill="#000000" font-family="sans-serif" font-size="14" lengthAdjust="spacing" textLength="128.3652" x="828.3682" y="69.9951">SuccessToastView</text></g><g class="participant participant-tail" data-entity-uid="part6" data-qualified-name="ToastView" data-source-line="6" id="part6-tail"><rect fill="#E2E2F0" height="62.8906" rx="2.5" ry="2.5" style="stroke:#181818;stroke-width:0.5;" width="142.3652" x="821.3682" y="686.2266"/><text fill="#000000" font-family="sans-serif" font-size="14" lengthAdjust="spacing" textLength="106.6885" x="839.2065" y="706.2217">ErrorToastView</text><text fill="#000000" font-family="sans-serif" font-size="14" lengthAdjust="spacing" textLength="14.3213" x="885.3901" y="722.5186">or</text><text fill="#000000" font-family="sans-serif" font-size="14" lengthAdjust="spacing" textLength="128.3652" x="828.3682" y="738.8154">SuccessToastView</text></g><g><title>ContentView</title><rect fill="#FFFFFF" height="227.7969" style="stroke:#181818;stroke-width:1;" width="10" x="114.125" y="112.4297"/></g><g><title>ContentViewModel</title><rect fill="#FFFFFF" height="198.6641" style="stroke:#181818;stroke-width:1;" width="10" x="248.3511" y="141.5625"/></g><g><title>ToastManager</title><rect fill="#FFFFFF" height="113.3984" style="stroke:#181818;stroke-width:1;" width="10" x="490.8862" y="212.8281"/></g><g><title>ToastManager</title><rect fill="#FFFFFF" height="29.1328" style="stroke:#181818;stroke-width:1;" width="10" x="490.8862" y="369.3594"/></g><g><title>ToastManager</title><rect fill="#FFFFFF" height="76.2656" style="stroke:#181818;stroke-width:1;" width="10" x="490.8862" y="534.6953"/></g><g><title>ToastableModifier</title><rect fill="#FFFFFF" height="87.3984" style="stroke:#181818;stroke-width:1;" width="10" x="736.4727" y="369.3594"/></g><g><title>ToastableModifier</title><rect fill="#FFFFFF" height="58.2656" style="stroke:#181818;stroke-width:1;" width="10" x="736.4727" y="610.9609"/></g><g><title>ErrorToastView</title><rect fill="#FFFFFF" height="29.1328" style="stroke:#181818;stroke-width:1;" width="10" x="887.5508" y="427.625"/></g><g><title>ErrorToastView</title><rect fill="#FFFFFF" height="29.1328" style="stroke:#181818;stroke-width:1;" width="10" x="887.5508" y="640.0938"/></g><g class="message" data-entity-1="part1" data-entity-2="part2" data-source-line="8" id="msg1"><polygon fill="#181818" points="102.125,108.4297,112.125,112.4297,102.125,116.4297,106.125,112.4297" style="stroke:#181818;stroke-width:1;"/><line style="stroke:#181818;stroke-width:1;" x1="23.9551" x2="108.125" y1="112.4297" y2="112.4297"/><text fill="#000000" font-family="sans-serif" font-size="13" lengthAdjust="spacing" textLength="71.1699" x="30.9551" y="107.3638">Tap button</text></g><g class="message" data-entity-1="part2" data-entity-2="part3" data-source-line="10" id="msg2"><polygon fill="#181818" points="236.3511,137.5625,246.3511,141.5625,236.3511,145.5625,240.3511,141.5625" style="stroke:#181818;stroke-width:1;"/><line style="stroke:#181818;stroke-width:1;" x1="124.125" x2="242.3511" y1="141.5625" y2="141.5625"/><text fill="#000000" font-family="sans-serif" font-size="13" lengthAdjust="spacing" textLength="103.2192" x="131.125" y="136.4966">performAction()</text></g><g class="message" data-entity-1="part3" data-entity-2="part3" data-source-line="13" id="msg3"><line style="stroke:#181818;stroke-width:1;" x1="258.3511" x2="300.3511" y1="170.6953" y2="170.6953"/><line style="stroke:#181818;stroke-width:1;" x1="300.3511" x2="300.3511" y1="170.6953" y2="183.6953"/><line style="stroke:#181818;stroke-width:1;" x1="259.3511" x2="300.3511" y1="183.6953" y2="183.6953"/><polygon fill="#181818" points="269.3511,179.6953,259.3511,183.6953,269.3511,187.6953,265.3511,183.6953" style="stroke:#181818;stroke-width:1;"/><text fill="#000000" font-family="sans-serif" font-size="13" lengthAdjust="spacing" textLength="147.8877" x="265.3511" y="165.6294">Execute business logic</text></g><g class="message" data-entity-1="part3" data-entity-2="part4" data-source-line="14" id="msg4"><polygon fill="#181818" points="478.8862,208.8281,488.8862,212.8281,478.8862,216.8281,482.8862,212.8281" style="stroke:#181818;stroke-width:1;"/><line style="stroke:#181818;stroke-width:1;" x1="258.3511" x2="484.8862" y1="212.8281" y2="212.8281"/><text fill="#000000" font-family="sans-serif" font-size="13" lengthAdjust="spacing" textLength="213.5352" x="265.3511" y="207.7622">showToast(.success("Message"))</text></g><g class="message" data-entity-1="part4" data-entity-2="part4" data-source-line="17" id="msg5"><line style="stroke:#181818;stroke-width:1;" x1="500.8862" x2="542.8862" y1="241.9609" y2="241.9609"/><line style="stroke:#181818;stroke-width:1;" x1="542.8862" x2="542.8862" y1="241.9609" y2="254.9609"/><line style="stroke:#181818;stroke-width:1;" x1="501.8862" x2="542.8862" y1="254.9609" y2="254.9609"/><polygon fill="#181818" points="511.8862,250.9609,501.8862,254.9609,511.8862,258.9609,507.8862,254.9609" style="stroke:#181818;stroke-width:1;"/><text fill="#000000" font-family="sans-serif" font-size="13" lengthAdjust="spacing" textLength="211.5864" x="507.8862" y="236.895">Set toast = .success("Message")</text></g><g class="message" data-entity-1="part4" data-entity-2="part4" data-source-line="18" id="msg6"><line style="stroke:#181818;stroke-width:1;" x1="500.8862" x2="542.8862" y1="299.2266" y2="299.2266"/><line style="stroke:#181818;stroke-width:1;" x1="542.8862" x2="542.8862" y1="299.2266" y2="312.2266"/><line style="stroke:#181818;stroke-width:1;" x1="501.8862" x2="542.8862" y1="312.2266" y2="312.2266"/><polygon fill="#181818" points="511.8862,308.2266,501.8862,312.2266,511.8862,316.2266,507.8862,312.2266" style="stroke:#181818;stroke-width:1;"/><text fill="#000000" font-family="sans-serif" font-size="13" lengthAdjust="spacing" textLength="146.2754" x="507.8862" y="279.0278">Schedule auto-dismiss</text><text fill="#000000" font-family="sans-serif" font-size="13" lengthAdjust="spacing" textLength="72.7061" x="507.8862" y="294.1606">(after 2.5s)</text></g><g class="message" data-entity-1="part4" data-entity-2="part3" data-source-line="20" id="msg7"><polygon fill="#181818" points="269.3511,322.2266,259.3511,326.2266,269.3511,330.2266,265.3511,326.2266" style="stroke:#181818;stroke-width:1;"/><line style="stroke:#181818;stroke-width:1;stroke-dasharray:2,2;" x1="263.3511" x2="494.8862" y1="326.2266" y2="326.2266"/></g><g class="message" data-entity-1="part3" data-entity-2="part2" data-source-line="23" id="msg8"><polygon fill="#181818" points="130.125,336.2266,120.125,340.2266,130.125,344.2266,126.125,340.2266" style="stroke:#181818;stroke-width:1;"/><line style="stroke:#181818;stroke-width:1;stroke-dasharray:2,2;" x1="124.125" x2="252.3511" y1="340.2266" y2="340.2266"/></g><g class="message" data-entity-1="part5" data-entity-2="part4" data-source-line="27" id="msg9"><polygon fill="#181818" points="511.8862,365.3594,501.8862,369.3594,511.8862,373.3594,507.8862,369.3594" style="stroke:#181818;stroke-width:1;"/><line style="stroke:#181818;stroke-width:1;" x1="505.8862" x2="735.4727" y1="369.3594" y2="369.3594"/><text fill="#000000" font-family="sans-serif" font-size="13" lengthAdjust="spacing" textLength="180.3496" x="517.8862" y="364.2935">Observe toast state change</text></g><g class="message" data-entity-1="part4" data-entity-2="part5" data-source-line="31" id="msg10"><polygon fill="#181818" points="724.4727,394.4922,734.4727,398.4922,724.4727,402.4922,728.4727,398.4922" style="stroke:#181818;stroke-width:1;"/><line style="stroke:#181818;stroke-width:1;stroke-dasharray:2,2;" x1="495.8862" x2="730.4727" y1="398.4922" y2="398.4922"/><text fill="#000000" font-family="sans-serif" font-size="13" lengthAdjust="spacing" textLength="186.1069" x="502.8862" y="393.4263">toast = .success("Message")</text></g><g class="message" data-entity-1="part5" data-entity-2="part6" data-source-line="34" id="msg11"><polygon fill="#181818" points="875.5508,423.625,885.5508,427.625,875.5508,431.625,879.5508,427.625" style="stroke:#181818;stroke-width:1;"/><line style="stroke:#181818;stroke-width:1;" x1="746.4727" x2="881.5508" y1="427.625" y2="427.625"/><text fill="#000000" font-family="sans-serif" font-size="13" lengthAdjust="spacing" textLength="101.3657" x="753.4727" y="422.5591">Render toast UI</text></g><g class="message" data-entity-1="part6" data-entity-2="part1" data-source-line="36" id="msg12"><polygon fill="#181818" points="34.9551,452.7578,24.9551,456.7578,34.9551,460.7578,30.9551,456.7578" style="stroke:#181818;stroke-width:1;"/><line style="stroke:#181818;stroke-width:1;" x1="28.9551" x2="891.5508" y1="456.7578" y2="456.7578"/><text fill="#000000" font-family="sans-serif" font-size="13" lengthAdjust="spacing" textLength="84.938" x="40.9551" y="451.6919">Display toast</text></g><text fill="#000000" font-family="sans-serif" font-size="11" lengthAdjust="spacing" textLength="94.8481" x="410.8289" y="488.9683">2.5 seconds later</text><g class="message" data-entity-1="part4" data-entity-2="part4" data-source-line="42" id="msg13"><line style="stroke:#181818;stroke-width:1;" x1="495.8862" x2="542.8862" y1="521.6953" y2="521.6953"/><line style="stroke:#181818;stroke-width:1;" x1="542.8862" x2="542.8862" y1="521.6953" y2="534.6953"/><line style="stroke:#181818;stroke-width:1;" x1="501.8862" x2="542.8862" y1="534.6953" y2="534.6953"/><polygon fill="#181818" points="511.8862,530.6953,501.8862,534.6953,511.8862,538.6953,507.8862,534.6953" style="stroke:#181818;stroke-width:1;"/><text fill="#000000" font-family="sans-serif" font-size="13" lengthAdjust="spacing" textLength="154.6162" x="507.8862" y="516.6294">Auto-dismiss timer fires</text></g><g class="message" data-entity-1="part4" data-entity-2="part4" data-source-line="44" id="msg14"><line style="stroke:#181818;stroke-width:1;" x1="500.8862" x2="542.8862" y1="568.8281" y2="568.8281"/><line style="stroke:#181818;stroke-width:1;" x1="542.8862" x2="542.8862" y1="568.8281" y2="581.8281"/><line style="stroke:#181818;stroke-width:1;" x1="501.8862" x2="542.8862" y1="581.8281" y2="581.8281"/><polygon fill="#181818" points="511.8862,577.8281,501.8862,581.8281,511.8862,585.8281,507.8862,581.8281" style="stroke:#181818;stroke-width:1;"/><text fill="#000000" font-family="sans-serif" font-size="13" lengthAdjust="spacing" textLength="92.9868" x="507.8862" y="563.7622">Set toast = nil</text></g><g class="message" data-entity-1="part4" data-entity-2="part5" data-source-line="45" id="msg15"><polygon fill="#181818" points="724.4727,606.9609,734.4727,610.9609,724.4727,614.9609,728.4727,610.9609" style="stroke:#181818;stroke-width:1;"/><line style="stroke:#181818;stroke-width:1;" x1="495.8862" x2="730.4727" y1="610.9609" y2="610.9609"/><text fill="#000000" font-family="sans-serif" font-size="13" lengthAdjust="spacing" textLength="127.6958" x="502.8862" y="605.895">Notify state change</text></g><g class="message" data-entity-1="part5" data-entity-2="part6" data-source-line="49" id="msg16"><polygon fill="#181818" points="875.5508,636.0938,885.5508,640.0938,875.5508,644.0938,879.5508,640.0938" style="stroke:#181818;stroke-width:1;"/><line style="stroke:#181818;stroke-width:1;" x1="746.4727" x2="881.5508" y1="640.0938" y2="640.0938"/><text fill="#000000" font-family="sans-serif" font-size="13" lengthAdjust="spacing" textLength="122.0781" x="753.4727" y="635.0278">Remove from view</text></g><g class="message" data-entity-1="part6" data-entity-2="part1" data-source-line="51" id="msg17"><polygon fill="#181818" points="34.9551,665.2266,24.9551,669.2266,34.9551,673.2266,30.9551,669.2266" style="stroke:#181818;stroke-width:1;"/><line style="stroke:#181818;stroke-width:1;stroke-dasharray:2,2;" x1="28.9551" x2="891.5508" y1="669.2266" y2="669.2266"/><text fill="#000000" font-family="sans-serif" font-size="13" lengthAdjust="spacing" textLength="111.0522" x="40.9551" y="664.1606">Toast disappears</text></g><?plantuml-src bLEnReCm4DtvYbCcCfIXKXUaLehQ31tIIatIASjXZiGIsCWsIVFtDP0YOo19bmZUtJlktdj1PgI2hIOLbAWCPxn4OU1L2aF2V7CwJU4hcLBUAsuaQhD2WNjlMbF092VBuHdtghEbKb8rFVNSdP1g9zOLOwHrXyu0DNHlGL1l30ylxa8nRB24f396YW2PuKSqrBl4UVQupJ4nbAGogOg59KiHpaUdj7S7FZ8-SFb3hBByfD9Ss7iWbtlEHickUZ7eWpmrI1ZfLefmjhA_jZgREulrD0_Sj-7CDHamDGBFC3Br5fiTAAro0goCV4YvBhZMEn5YPcpxO_Iav_u2ev84AKriFrJ5DzZb3YmPhrrsSjCtlEqpiN4wqaKTssrdi0EAFNbAzq9ybmb_ttAPyLKR9lMPFgHLvuj4Qi5szlRTswyHetkggVL_A8OthiiSporjyF66vOCz5O8eYchxGHEJ8hKHnpeG5hsLnuKJ932yi3qPLwGdXBq_t8Bduzrz4pwauTcvR_Ua-5SKkErB8MsuCYKBEDPwNZUcSwR1m0g4PKcezF_D-GK0?></g></svg>